<?xml version="1.0" encoding="UTF-8" standalone="no"?>
<!-- Created with Inkscape (http://www.inkscape.org/) -->

<svg
   width="99.291519mm"
   height="199.99211mm"
   viewBox="0 0 99.291519 199.99211"
   version="1.1"
   id="svg1"
   xmlns="http://www.w3.org/2000/svg"
   xmlns:svg="http://www.w3.org/2000/svg">
  <defs
     id="defs1" />
  <g
     id="layer1"
     transform="translate(-5.0000056,-48.504351)">
    <path
       style="fill:#808080;fill-opacity:0;fill-rule:evenodd;stroke:#4343f1;stroke-width:0.318744;stroke-opacity:1"
       id="path6"
       d="M 104.15909,248.33709 A 99.840622,99.84063 0 0 1 5.1593883,148.54521 99.840622,99.84063 0 0 1 104.06867,48.663714" />
    <path
       style="fill:#808080;fill-opacity:0;fill-rule:evenodd;stroke:#4343f1;stroke-width:0.264214;stroke-opacity:1"
       id="path7"
       d="M 104.24479,208.37095 A 59.867893,59.867893 0 0 1 52.231522,178.57389 59.867893,59.867893 0 0 1 52.117536,118.63032 59.867893,59.867893 0 0 1 104.0171,88.635665" />
    <path
       style="fill:#808080;fill-opacity:0;fill-rule:evenodd;stroke:#4343f1;stroke-width:0.264999;stroke-opacity:1"
       d="m 103.8849,88.63577 0.0533,-39.970754"
       id="path9" />
    <path
       style="fill:#808080;fill-opacity:0;fill-rule:evenodd;stroke:#4343f1;stroke-width:0.264999;stroke-opacity:1"
       d="m 104.11253,208.37134 0.0465,39.96575"
       id="path10" />
    <path
       style="fill:#0000ff;fill-opacity:0.271084;fill-rule:evenodd;stroke:#000080;stroke-width:0.264999;stroke-opacity:0"
       d="m 103.86758,228.20312 v -19.71146 l -2.4474,-0.005 C 94.021959,208.47106 84.8544,206.11135 77.030022,202.2087 59.40824,193.41931 47.283778,176.49851 44.440328,156.72679 c -0.546013,-3.79666 -0.62098,-11.80177 -0.144587,-15.43913 1.749419,-13.35717 7.318991,-25.04016 16.444753,-34.49527 5.086599,-5.27017 10.13791,-8.939893 16.801042,-12.20578 7.57501,-3.712839 14.625391,-5.569307 23.217184,-6.113428 l 2.84427,-0.180125 V 68.582923 48.872952 l -3.24114,0.180469 c -10.569184,0.588502 -20.582222,2.654898 -30.282914,6.249506 -4.886121,1.810562 -13.943888,6.317329 -18.282425,9.096574 -12.674171,8.119006 -22.783342,18.228177 -30.902348,30.902348 -2.766753,4.319037 -7.287035,13.396641 -9.065059,18.204401 -8.0459685,21.7562 -8.4577369,44.65647 -1.196504,66.54271 3.913883,11.79692 10.004978,22.64619 18.256035,32.51708 3.276185,3.91936 9.810017,10.33229 13.727901,13.47388 11.180874,8.96548 24.752287,15.68342 38.540473,19.0778 6.702242,1.64996 14.981304,2.79686 20.189501,2.79686 h 2.52107 z"
       id="path18" />
  </g>
</svg>
