<?xml version="1.0" encoding="UTF-8" standalone="no"?>
<!-- Created with Inkscape (http://www.inkscape.org/) -->

<svg
   width="99.291519mm"
   height="199.99211mm"
   viewBox="0 0 99.291519 199.99211"
   version="1.1"
   id="svg1"
   xmlns="http://www.w3.org/2000/svg"
   xmlns:svg="http://www.w3.org/2000/svg">
  <defs
     id="defs1" />
  <g
     id="layer1"
     transform="translate(-5.0000056,-48.504351)">
    <path
       style="fill:#808080;fill-opacity:0;fill-rule:evenodd;stroke:#4343f1;stroke-width:0.318744;stroke-opacity:1"
       id="path6"
       d="M -5.1324504,248.33709 A 99.840622,99.84063 0 0 1 -104.13215,148.54521 99.840622,99.84063 0 0 1 -5.2228632,48.663714"
       transform="scale(-1,1)" />
    <path
       style="fill:#808080;fill-opacity:0;fill-rule:evenodd;stroke:#4343f1;stroke-width:0.264214;stroke-opacity:1"
       id="path7"
       d="M -5.0467487,208.37095 A 59.867893,59.867893 0 0 1 -57.060013,178.57389 59.867893,59.867893 0 0 1 -57.173999,118.63032 59.867893,59.867893 0 0 1 -5.274432,88.635665"
       transform="scale(-1,1)" />
    <path
       style="fill:#808080;fill-opacity:0;fill-rule:evenodd;stroke:#4343f1;stroke-width:0.264999;stroke-opacity:1"
       d="m 5.4066352,88.63577 -0.0533,-39.970754"
       id="path9" />
    <path
       style="fill:#808080;fill-opacity:0;fill-rule:evenodd;stroke:#4343f1;stroke-width:0.264999;stroke-opacity:1"
       d="m 5.1790052,208.37134 -0.0465,39.96575"
       id="path10" />
    <path
       style="fill:#0000ff;fill-opacity:0.271084;fill-rule:evenodd;stroke:#000080;stroke-width:1.00157;stroke-opacity:0"
       d="M 20.5,862.5 V 788 l 9.25,-0.0195 c 27.961787,-0.059 62.610828,-8.97758 92.18328,-23.72773 C 188.53529,731.03302 234.36003,667.08039 245.10693,592.35261 247.1706,578.00305 247.45394,547.74752 245.6534,534 239.04142,483.5162 217.99107,439.36002 183.5,403.62419 164.27506,383.70544 145.18349,369.83561 120,357.4921 91.37004,343.45932 64.722931,336.44275 32.25,334.38623 L 21.5,333.70544 v -74.49439 -74.49438 l 12.25,0.68209 c 39.946516,2.22426 77.79107,10.03426 114.4551,23.62018 18.46723,6.84307 52.70131,23.87652 69.09893,34.38075 47.90238,30.68601 86.11027,68.8939 116.79628,116.79628 10.45702,16.32392 27.54155,50.63298 34.26164,68.80403 30.40996,82.22816 31.96625,168.78037 4.52222,251.5 -14.79263,44.58679 -37.81409,85.5919 -68.99919,122.89921 C 291.50255,818.21254 266.80775,842.45039 252,854.32411 209.74158,888.20939 158.44805,913.60004 106.33522,926.42919 81.003909,932.66525 49.712968,937 30.02844,937 H 20.5 Z"
       id="path18"
       transform="scale(0.26458333)" />
  </g>
</svg>
